<svg xmlns="http://www.w3.org/2000/svg" viewBox="-36 -43 70 83"><clipPath id="a"><path d="M.1 7.4c4 10.5 2.3 13.2-.7 16.6s-3.1 11.2 2.5 16.2h-38.7v-83.1h32.4C-16.6-21.7 6.9-31.7-1.1-8.4z"/></clipPath><path fill="#fff48a" d="m 6.9898361,-25 c 3.5999999,-1.4 3.6999999,-9.6 -6.69999997,-15.8 10.39999987,18.1 -16.20000013,8.1 -9.20000003,25 -6.3000001,-0.2 -9.2000001,-3.1 -8.1000001,-10.8 -3.9,2 -6.9,6.7 -6.1,11 0.8,4.3 5.2,4.6 8.1,8.2 -15.8,-3.1 -6.7,4.2 -19.5,4.4 5.1,11.4 14.9,1 16.4,8.1 1.5,7.1 -12.1,2.1 -1.1,17.1 -0.8,-8.3 5.6,-4.1 9.5000001,-6.9 -1.0000001,15.5 9.70000003,8.5 7.7,23.3 5.8,-3.2 6.5,-8.6 3.7,-15.9 -5.8,-4.7 -6.8,-50.7 5.3,-47.7 z"/><path fill="none" stroke="#ffe80f" stroke-miterlimit="20" d="m 6.9898361,-25 c 3.5999999,-1.4 3.6999999,-9.6 -6.69999997,-15.8 10.39999987,18.1 -16.20000013,8.1 -9.20000003,25 -6.3000001,-0.2 -9.2000001,-3.1 -8.1000001,-10.8 -3.9,2 -6.9,6.7 -6.1,11 0.8,4.3 5.2,4.6 8.1,8.2 -15.8,-3.1 -6.7,4.2 -19.5,4.4 5.1,11.4 14.9,1 16.4,8.1 1.5,7.1 -12.1,2.1 -1.1,17.1 -0.8,-8.3 5.6,-4.1 9.5000001,-6.9 -1.0000001,15.5 9.70000003,8.5 7.7,23.3 5.8,-3.2 6.5,-8.6 3.7,-15.9"/><path fill="#eb3044" stroke="#eb3044" stroke-miterlimit="20" d="m 7.6,15.3 c 1,15.5 -9.7,8.5 -7.7,23.3 C -5.9,35.4 -6.6,30 -3.8,22.7 -1,15.4 -12.5,14.4 -15,18.5 c -2.5,4.1 -7.9,4.2 -9.8,-2.3 4.9,2.3 7.2,0.4 5.2,-2.8 -2,-3.2 -1.1,-6.7 1.6,-8.5 -4.7,-7.5 -12.1,2.1 -16.3,-10.2 7,5 6,-7.1 19.1,-1.7 -3.4,-8 11.4,-8.3 -3.7,-14.9 6,-1.2 11.3,-0.6 13.7,3.2 0.8,-3.3 -0.3,-4.9 -3.9,-6.3 -3.6,-1.4 -3.7,-9.6 6.7,-15.8 z" clip-path="url(#a)" transform="matrix(-1 0 0 1 -2.11 0)"/><path fill="#ffd600" d="m -2.1101639,-14.6 a -14.6,14.6 0 1 0 0,29.2 -14.6,14.6 0 1 0 0,-29.2 z"/><path fill="#eb3044" d="m -6.3101639,14 c 14.7,0 14.9,-10.9 7.4,-12 1.7,-0.2 3.5,-0.2 5.4,0.1 -3.6,-4.9 -13.6,-0.6 -17.1000001,-3.4 -3.5,-2.8 -0.9,-12.7 12.8000001,-12.7 a -14.630875,14.630875 0 1 0 -8.5,28 z"/><path fill="none" stroke="#ff794d" d="m -2.1101639,-14.6 a -14.6,14.6 0 1 0 0,29.2 -14.6,14.6 0 1 0 0,-29.2 z"/></svg>