<svg xmlns="http://www.w3.org/2000/svg" viewBox="-36 -43 70 83">
  <clipPath id="A"><path d="M.1 7.4c4 10.5 2.3 13.2-.7 16.6s-3.1 11.2 2.5 16.2h-38.7v-83.1h32.4C-16.6-21.7 6.9-31.7-1.1-8.4z"/></clipPath>
  <path d="M-9.1-25c-3.6-1.4-3.7-9.6 6.7-15.8-10.4 18.1 16.2 8.1 9.2 25 6.3-.2 9.2-3.1 8.1-10.8 3.9 2 6.9 6.7 6.1 11s-5.2 4.6-8.1 8.2c15.8-3.1 6.7 4.2 19.5 4.4C27.3 8.4 17.5-2 16 5.1s12.1 2.1 1.1 17.1c.8-8.3-5.6-4.1-9.5-6.9 1 15.5-9.7 8.5-7.7 23.3-5.8-3.2-6.5-8.6-3.7-15.9C2 18 3-28-9.1-25z" fill="#fff48a"/>
  <path d="M-9.1-25c-3.6-1.4-3.7-9.6 6.7-15.8-10.4 18.1 16.2 8.1 9.2 25 6.3-.2 9.2-3.1 8.1-10.8 3.9 2 6.9 6.7 6.1 11s-5.2 4.6-8.1 8.2c15.8-3.1 6.7 4.2 19.5 4.4C27.3 8.4 17.5-2 16 5.1s12.1 2.1 1.1 17.1c.8-8.3-5.6-4.1-9.5-6.9 1 15.5-9.7 8.5-7.7 23.3-5.8-3.2-6.5-8.6-3.7-15.9" fill="none" stroke="#ffe80f" stroke-miterlimit="20"/>
  <path d="M7.6 15.3c1 15.5-9.7 8.5-7.7 23.3-5.8-3.2-6.5-8.6-3.7-15.9s-8.7-8.3-11.2-4.2-7.9 4.2-9.8-2.3c4.9 2.3 7.2.4 5.2-2.8s-1.1-6.7 1.6-8.5C-22.7-2.6-30.1 7-34.3-5.3c7 5 6-7.1 19.1-1.7-3.4-8 11.4-8.3-3.7-14.9 6-1.2 11.3-.6 13.7 3.2.8-3.3-.3-4.9-3.9-6.3s-3.7-9.6 6.7-15.8z" fill="#eb3044" stroke="#eb3044" stroke-miterlimit="20" clip-path="url(#A)"/>
  <path d="M0-14.6A14.6 14.6 0 1 1 0 14.6 14.6 14.6 0 1 1 0-14.6Z" fill="#ffd600"/>
  <path d="M4.2 14C-10.5 14-10.7 3.1-3.2 2c-1.7-.2-3.5-.2-5.4.1C-5-2.8 5 1.5 8.5-1.3S9.4-14-4.3-14a1 1 0 1 1 8.5 28z" fill="#eb3044"/>
  <path d="M0-14.6A14.6 14.6 0 1 1 0 14.6 14.6 14.6 0 1 1 0-14.6Z" fill="none" stroke="#ff794d"/>
</svg>
