<svg width="512" height="512" viewBox="-36 -43 512 512"><clipPath id="a"><path d="M.1 7.4c4 10.5 2.3 13.2-.7 16.6-3 3.4-3.1 11.2 2.5 16.2h-38.7v-83.1h32.4C-16.6-21.7 6.9-31.7-1.1-8.4z"/></clipPath><path fill="#fff48a" d="M265.992 64.807c22.553-8.77 23.18-60.142-41.975-98.984 65.155 113.393-101.49 50.745-57.636 156.62-39.468-1.253-57.636-19.42-50.745-67.66-24.433 12.53-43.227 41.975-38.215 68.913 5.011 26.939 32.577 28.818 50.745 51.372C29.18 155.647 86.19 201.38 6.002 202.633c31.95 71.42 93.345 6.265 102.743 50.745 9.397 44.48-75.805 13.156-6.892 107.129-5.011-51.998 35.083-25.686 59.516-43.228-6.265 97.105 60.769 53.251 48.24 145.97 36.335-20.047 40.72-53.877 23.18-99.61-36.337-29.445-42.602-317.627 33.203-298.832Z"/><path fill="none" stroke="#ffe80f" stroke-miterlimit="20" stroke-width="6.265" d="M265.992 64.807c22.553-8.77 23.18-60.142-41.975-98.984 65.155 113.393-101.49 50.745-57.636 156.62-39.468-1.253-57.636-19.42-50.745-67.66-24.433 12.53-43.227 41.975-38.215 68.913 5.011 26.939 32.577 28.818 50.745 51.372C29.18 155.647 86.19 201.38 6.002 202.633c31.95 71.42 93.345 6.265 102.743 50.745 9.397 44.48-75.805 13.156-6.892 107.129-5.011-51.998 35.083-25.686 59.516-43.228-6.265 97.105 60.769 53.251 48.24 145.97 36.335-20.047 40.72-53.877 23.18-99.61"/><path fill="#eb3044" stroke="#eb3044" stroke-miterlimit="20" d="M7.6 15.3c1 15.5-9.7 8.5-7.7 23.3-5.8-3.2-6.5-8.6-3.7-15.9 2.8-7.3-8.7-8.3-11.2-4.2-2.5 4.1-7.9 4.2-9.8-2.3 4.9 2.3 7.2.4 5.2-2.8-2-3.2-1.1-6.7 1.6-8.5C-22.7-2.6-30.1 7-34.3-5.3c7 5 6-7.1 19.1-1.7-3.4-8 11.4-8.3-3.7-14.9 6-1.2 11.3-.6 13.7 3.2.8-3.3-.3-4.9-3.9-6.3-3.6-1.4-3.7-9.6 6.7-15.8z" clip-path="url(#a)" transform="matrix(-6.26483 0 0 6.26483 208.983 221.428)"/><path fill="#ffd600" d="M208.982 129.961a91.466 91.466 0 1 0 0 182.933 91.466 91.466 0 1 0 0-182.933z"/><path fill="#eb3044" d="M182.67 309.135c92.093 0 93.346-68.286 46.36-75.178 10.65-1.253 21.926-1.253 33.83.627-22.554-30.698-85.202-3.76-107.13-21.3-21.926-17.542-5.637-79.564 80.19-79.564a91.66 91.66 0 1 0-53.25 175.415Z"/><path fill="none" stroke="#ff794d" stroke-width="6.265" d="M208.982 129.961a91.466 91.466 0 1 0 0 182.933 91.466 91.466 0 1 0 0-182.933z"/></svg>