<svg xmlns="http://www.w3.org/2000/svg" id="svg720" version="1.1" viewBox="0 0 149 151"><defs id="defs12"><clipPath id="clip-0"><path id="path1" d="M 0,0 H 1190.5508 V 1683.7813 H 0 Z m 0,0" clip-rule="nonzero"/></clipPath><clipPath id="clip-1"><path id="path2" d="m 1002,940 h 188.5508 v 183 H 1002 Z m 0,0" clip-rule="nonzero"/></clipPath><clipPath id="clip-2"><path id="path3" d="M 56,56 H 1190.5508 V 1134 H 56 Z m 0,0" clip-rule="nonzero"/></clipPath><clipPath id="clip-3"><path id="path4" d="M 67,67 H 1190.5508 V 1123 H 67 Z m 0,0" clip-rule="nonzero"/></clipPath><clipPath id="clip-4"><path id="path5" d="m 1190,56 h 0.5508 V 69 H 1190 Z m 0,0" clip-rule="nonzero"/></clipPath><clipPath id="clip-5"><path id="path6" d="m 1190,1121 h 0.5508 v 13 H 1190 Z m 0,0" clip-rule="nonzero"/></clipPath><clipPath id="clip-6"><path id="path7" d="m 1186,1092 h 4.5508 v 7 H 1186 Z m 0,0" clip-rule="nonzero"/></clipPath><clipPath id="clip-7"><path id="path8" d="m 1185,1094 h 5.5508 v 5 H 1185 Z m 0,0" clip-rule="nonzero"/></clipPath><clipPath id="clip-8"><path id="path9" d="m 1002,1101 h 188.5508 v 2 H 1002 Z m 0,0" clip-rule="nonzero"/></clipPath><clipPath id="clip-9"><path id="path10" d="m 1002,1084 h 188.5508 v 2 H 1002 Z m 0,0" clip-rule="nonzero"/></clipPath><clipPath id="clip-10"><path id="path11" d="m 1002,1062 h 188.5508 v 2 H 1002 Z m 0,0" clip-rule="nonzero"/></clipPath><clipPath id="clip-11"><path id="path12" d="m 1002,1028 h 188.5508 v 2 H 1002 Z m 0,0" clip-rule="nonzero"/></clipPath></defs><path id="path443" fill="none" stroke="#840000" stroke-linecap="round" stroke-linejoin="round" stroke-miterlimit="10" stroke-opacity="1" stroke-width="1.4" d="m 75.903745,68.130309 h 11.51954 v 28.78516 h -11.51954 z m 0,0"/><path id="path444" fill="none" stroke="#840000" stroke-linecap="round" stroke-linejoin="round" stroke-miterlimit="10" stroke-opacity="1" stroke-width=".9" d="m 81.661565,68.130309 v -7.19922"/><path id="path445" fill="none" stroke="#840000" stroke-linecap="round" stroke-linejoin="round" stroke-miterlimit="10" stroke-opacity="1" stroke-width=".9" d="m 81.661565,96.915469 v 7.199221"/><path id="path446" fill="none" stroke="#840000" stroke-linecap="round" stroke-linejoin="round" stroke-miterlimit="10" stroke-opacity="1" stroke-width="1.4" d="m 31.278745,40.770939 h 28.78125 v 11.51953 h -28.78125 z m 0,0"/><path id="path447" fill="none" stroke="#840000" stroke-linecap="round" stroke-linejoin="round" stroke-miterlimit="10" stroke-opacity="1" stroke-width=".9" d="m 31.278745,46.528749 h -7.20312"/><path id="path448" fill="none" stroke="#840000" stroke-linecap="round" stroke-linejoin="round" stroke-miterlimit="10" stroke-opacity="1" stroke-width=".9" d="m 60.059995,46.528749 h 7.20313"/><path id="path449" fill="none" stroke="#840000" stroke-linecap="round" stroke-linejoin="round" stroke-miterlimit="10" stroke-opacity="1" stroke-width=".9" d="m 5.372495,32.145939 4.30469,-7.20313"/><path id="path450" fill="none" stroke="#840000" stroke-linecap="round" stroke-linejoin="round" stroke-miterlimit="10" stroke-opacity="1" stroke-width=".9" d="m 9.677185,24.942809 4.32031,7.20313"/><path id="path451" fill="none" stroke="#840000" stroke-linecap="round" stroke-linejoin="round" stroke-miterlimit="10" stroke-opacity="1" stroke-width=".9" d="M 9.677185,39.329529 V 24.942809"/><path id="path452" fill="none" stroke="#840000" stroke-linecap="round" stroke-linejoin="round" stroke-miterlimit="10" stroke-opacity="1" stroke-width=".9" d="m 9.677185,39.329529 v 0"/><path id="path453" fill="none" stroke="#840000" stroke-linecap="round" stroke-linejoin="round" stroke-miterlimit="10" stroke-opacity="1" stroke-width=".9" d="m 81.661565,118.51313 v 7.19921 h 7.19922 l -7.19922,7.20313 -7.19922,-7.20313 h 7.19922"/><path id="path454" fill="none" stroke="#840000" stroke-linecap="round" stroke-linejoin="round" stroke-miterlimit="10" stroke-opacity="1" stroke-width=".9" d="m 81.661565,118.51313 v 0"/><path id="path455" fill="none" stroke="#c624d5" stroke-linecap="round" stroke-linejoin="round" stroke-miterlimit="10" stroke-opacity="1" stroke-width=".9" d="m 83.595155,5.579529 h 3.4375"/><path id="path456" fill="none" stroke="#c624d5" stroke-linecap="round" stroke-linejoin="round" stroke-miterlimit="10" stroke-opacity="1" stroke-width=".9" d="m 82.923285,7.634219 2.39843,-7.19922 2.38672,7.19922"/><path id="path457" fill="none" stroke="#c624d5" stroke-linecap="round" stroke-linejoin="round" stroke-miterlimit="10" stroke-opacity="1" stroke-width=".9" d="m 90.106875,2.833439 v 4.80078"/><path id="path458" fill="none" stroke="#c624d5" stroke-linecap="round" stroke-linejoin="round" stroke-miterlimit="10" stroke-opacity="1" stroke-width=".9" d="m 90.106875,3.524839 0.34375,-0.34375 0.69141,-0.34765 h 1.03515 l 0.67578,0.34765 0.34375,0.6875 v 3.76563"/><path id="path459" fill="none" stroke="#c624d5" stroke-linecap="round" stroke-linejoin="round" stroke-miterlimit="10" stroke-opacity="1" stroke-width=".9" d="m 99.708435,7.634219 v -3.76563 l -0.34765,-0.6875 -0.67579,-0.34765 h -1.3789 l -0.67578,0.34765"/><path id="path460" fill="none" stroke="#c624d5" stroke-linecap="round" stroke-linejoin="round" stroke-miterlimit="10" stroke-opacity="1" stroke-width=".9" d="m 99.708435,7.290469 -0.67578,0.34375 h -1.72656 l -0.67578,-0.34375 -0.34375,-0.67578 v -0.69141 l 0.34375,-0.6875 0.67578,-0.33203 h 1.72656 l 0.67578,-0.34375"/><path id="path461" fill="none" stroke="#c624d5" stroke-linecap="round" stroke-linejoin="round" stroke-miterlimit="10" stroke-opacity="1" stroke-width=".9" d="m 104.16157,7.634219 -0.67578,-0.34375 -0.34375,-0.67578 v -6.17969"/><path id="path462" fill="none" stroke="#c624d5" stroke-linecap="round" stroke-linejoin="round" stroke-miterlimit="10" stroke-opacity="1" stroke-width=".9" d="m 107.94282,7.634219 -0.69141,-0.34375 -0.34375,-0.33203 -0.34766,-0.6875 v -2.0586 l 0.34766,-0.6875 0.34375,-0.34375 0.69141,-0.34765 h 1.01953 l 0.6914,0.34765 0.34375,0.34375 0.34375,0.6875 v 2.0586 l -0.34375,0.6875 -0.34375,0.33203 -0.6914,0.34375 h -1.01953"/><path id="path463" fill="none" stroke="#c624d5" stroke-linecap="round" stroke-linejoin="round" stroke-miterlimit="10" stroke-opacity="1" stroke-width=".9" d="m 116.50532,2.833439 v 5.83594 l -0.34375,0.6914 -0.34375,0.32813 -0.69141,0.34375 h -1.01953 l -0.69141,-0.34375"/><path id="path464" fill="none" stroke="#c624d5" stroke-linecap="round" stroke-linejoin="round" stroke-miterlimit="10" stroke-opacity="1" stroke-width=".9" d="m 116.50532,7.290469 -0.6875,0.34375 h -1.36719 l -0.6875,-0.34375 -0.34766,-0.33203 -0.34375,-0.6875 v -2.0586 l 0.34375,-0.6875 0.34766,-0.34375 0.6875,-0.34765 h 1.36719 l 0.6875,0.34765"/><path id="path465" fill="none" stroke="#c624d5" stroke-linecap="round" stroke-linejoin="round" stroke-miterlimit="10" stroke-opacity="1" stroke-width=".9" d="m 129.52875,7.634219 -2.40234,-3.42188"/><path id="path466" fill="none" fill-opacity="1" stroke="#c624d5" stroke-linecap="round" stroke-linejoin="round" stroke-miterlimit="10" stroke-opacity="1" stroke-width=".9" d="m 125.41547,7.634219 v -7.19922 h 2.7461 l 0.67578,0.34375 0.34375,0.34375 0.34765,0.69141 v 1.01953 l -0.34765,0.6914 -0.34375,0.34375 -0.67578,0.34375 h -2.7461"/><path id="path467" fill="none" stroke="#c624d5" stroke-linecap="round" stroke-linejoin="round" stroke-miterlimit="10" stroke-opacity="1" stroke-width=".9" d="m 135.36079,7.290469 -0.6875,0.34375 h -1.38282 l -0.67187,-0.34375 -0.34766,-0.67578 v -2.7461 l 0.34766,-0.6875 0.67187,-0.34765 h 1.38282 l 0.6875,0.34765 0.33203,0.6875 v 0.69141 l -3.42188,0.67578"/><path id="path468" fill="none" stroke="#c624d5" stroke-linecap="round" stroke-linejoin="round" stroke-miterlimit="10" stroke-opacity="1" stroke-width=".9" d="m 141.8725,7.634219 v -3.76563 l -0.34375,-0.6875 -0.6914,-0.34765 h -1.36719 l -0.6875,0.34765"/><path id="path469" fill="none" stroke="#c624d5" stroke-linecap="round" stroke-linejoin="round" stroke-miterlimit="10" stroke-opacity="1" stroke-width=".9" d="m 141.8725,7.290469 -0.6914,0.34375 h -1.71094 l -0.6875,-0.34375 -0.34766,-0.67578 v -0.69141 l 0.34766,-0.6875 0.6875,-0.33203 h 1.71094 l 0.6914,-0.34375"/><path id="path470" fill="none" stroke="#c624d5" stroke-linecap="round" stroke-linejoin="round" stroke-miterlimit="10" stroke-opacity="1" stroke-width=".9" d="M 148.38032,7.634219 V 0.434999"/><path id="path471" fill="none" stroke="#c624d5" stroke-linecap="round" stroke-linejoin="round" stroke-miterlimit="10" stroke-opacity="1" stroke-width=".9" d="m 148.38032,7.290469 -0.6875,0.34375 h -1.36719 l -0.6875,-0.34375 -0.34766,-0.33203 -0.34375,-0.6875 v -2.0586 l 0.34375,-0.6875 0.34766,-0.34375 0.6875,-0.34765 h 1.36719 l 0.6875,0.34765"/><path id="path523" fill="none" stroke="#009600" stroke-linecap="round" stroke-linejoin="round" stroke-miterlimit="10" stroke-opacity="1" stroke-width=".9" d="m 81.661565,104.11469 v 14.39844"/><path id="path524" fill="none" stroke="#009600" stroke-linecap="round" stroke-linejoin="round" stroke-miterlimit="10" stroke-opacity="1" stroke-width=".9" d="M 81.661565,60.931089 V 46.528749"/><path id="path525" fill="none" stroke="#009600" stroke-linecap="round" stroke-linejoin="round" stroke-miterlimit="10" stroke-opacity="1" stroke-width=".9" d="M 81.661565,46.528749 H 67.263125"/><path id="path526" fill="none" stroke="#009600" stroke-linecap="round" stroke-linejoin="round" stroke-miterlimit="10" stroke-opacity="1" stroke-width=".9" d="m 81.661565,10.544379 v 35.98437"/><path id="path527" fill="none" stroke="#009600" stroke-linecap="round" stroke-linejoin="round" stroke-miterlimit="10" stroke-opacity="1" stroke-width=".9" d="m 9.677185,39.329529 v 7.19922"/><path id="path528" fill="none" stroke="#009600" stroke-linecap="round" stroke-linejoin="round" stroke-miterlimit="10" stroke-opacity="1" stroke-width=".9" d="m 9.677185,46.528749 h 14.39844"/><path id="path577" fill="#009600" fill-opacity="1" fill-rule="nonzero" d="m 84.263125,46.528749 c 0,1.4375 -1.16406,2.60156 -2.60156,2.60156 -1.4375,0 -2.60157,-1.16406 -2.60157,-2.60156 0,-1.4375 1.16407,-2.60156 2.60157,-2.60156 1.4375,0 2.60156,1.16406 2.60156,2.60156 z m 0,0"/><path id="path681" fill="none" stroke="#006464" stroke-linecap="round" stroke-linejoin="round" stroke-miterlimit="10" stroke-opacity="1" stroke-width=".9" d="m 101.82172,85.813909 h -3.417975 l -0.34765,3.42187 0.34765,-0.34765 0.6875,-0.34375 h 1.710945 l 0.69141,0.34375 0.32812,0.34765 0.34375,0.6875 v 1.71094 l -0.34375,0.69141 -0.32812,0.34375 -0.69141,0.32812 h -1.710945 l -0.6875,-0.32812 -0.34765,-0.34375"/><path id="path682" fill="none" stroke="#006464" stroke-linecap="round" stroke-linejoin="round" stroke-miterlimit="10" stroke-opacity="1" stroke-width=".9" d="m 109.02094,92.997499 h -4.10937"/><path id="path683" fill="none" stroke="#006464" stroke-linecap="round" stroke-linejoin="round" stroke-miterlimit="10" stroke-opacity="1" stroke-width=".9" d="m 106.96625,92.997499 v -7.18359 l -0.67578,1.01953 -0.6875,0.6914 -0.6914,0.34375"/><path id="path684" fill="none" stroke="#006464" stroke-linecap="round" stroke-linejoin="round" stroke-miterlimit="10" stroke-opacity="1" stroke-width=".9" d="m 112.11079,90.270939 h 5.49218"/><path id="path685" fill="none" stroke="#006464" stroke-linecap="round" stroke-linejoin="round" stroke-miterlimit="10" stroke-opacity="1" stroke-width=".9" d="m 124.45844,85.813909 h -3.4375 l -0.34375,3.42187 0.34375,-0.34765 0.69141,-0.34375 h 1.71094 l 0.6875,0.34375 0.34765,0.34765 0.32813,0.6875 v 1.71094 l -0.32813,0.69141 -0.34765,0.34375 -0.6875,0.32812 h -1.71094 l -0.69141,-0.32812 -0.34375,-0.34375"/><path id="path686" fill="none" stroke="#006464" stroke-linecap="round" stroke-linejoin="round" stroke-miterlimit="10" stroke-opacity="1" stroke-width=".9" d="m 127.53266,86.489689 0.34375,-0.34375 0.69141,-0.33203 h 1.71093 l 0.6875,0.33203 0.34375,0.34375 0.33204,0.6914 v 0.6875 l -0.33204,1.01954 -4.125,4.10937 h 4.45704"/><path id="path687" fill="none" stroke="#006464" stroke-linecap="round" stroke-linejoin="round" stroke-miterlimit="10" stroke-opacity="1" stroke-width=".9" d="m 135.07563,92.997499 h 1.36719 l 0.6875,-0.32812 0.34765,-0.34375 0.6875,-1.03516 0.33203,-1.36719 v -2.74219 l -0.33203,-0.6914 -0.34375,-0.34375 -0.6914,-0.33203 h -1.36328 l -0.69141,0.33203 -0.34375,0.34375 -0.34375,0.6914 v 1.70704 l 0.34375,0.6914 0.34375,0.34375 0.69141,0.34766 h 1.36328 l 0.6914,-0.34766 0.34375,-0.34375 0.33203,-0.6914"/><path id="path688" fill="none" stroke="#006464" stroke-linecap="round" stroke-linejoin="round" stroke-miterlimit="10" stroke-opacity="1" stroke-width=".9" d="m 142.95063,85.813909 h 0.69141 l 0.6914,0.33203 0.34375,0.34375 0.34375,0.6914 0.33203,1.36329 v 1.72656 l -0.33203,1.36328 -0.34375,0.69141 -0.34375,0.34375 -0.6914,0.32812 h -0.69141 l -0.67188,-0.32812 -0.34765,-0.34375 -0.34375,-0.69141 -0.34375,-1.36328 v -1.72656 l 0.34375,-1.36329 0.34375,-0.6914 0.34765,-0.34375 0.67188,-0.33203"/><path id="path689" fill="none" stroke="#006464" stroke-linecap="round" stroke-linejoin="round" stroke-miterlimit="10" stroke-opacity="1" stroke-width=".9" d="m 40.184995,23.431089 v 4.79688"/><path id="path690" fill="none" stroke="#006464" stroke-linecap="round" stroke-linejoin="round" stroke-miterlimit="10" stroke-opacity="1" stroke-width=".9" d="m 38.477965,20.684999 -1.71093,5.14453 h 4.45312"/><path id="path691" fill="none" stroke="#006464" stroke-linecap="round" stroke-linejoin="round" stroke-miterlimit="10" stroke-opacity="1" stroke-width=".9" d="m 43.278745,21.028749 h 4.79688 l -3.08984,7.19922"/><path id="path692" fill="none" stroke="#006464" stroke-linecap="round" stroke-linejoin="round" stroke-miterlimit="10" stroke-opacity="1" stroke-width=".9" d="m 52.184995,21.028749 h 0.69141 l 0.67578,0.34375 0.34375,0.34766 0.34766,0.67578 0.34375,1.3789 v 1.71094 l -0.34375,1.36328 -0.34766,0.69141 -0.34375,0.34375 -0.67578,0.34375 h -0.69141 l -0.6875,-0.34375 -0.34375,-0.34375 -0.34765,-0.69141 -0.32813,-1.36328 v -1.71094 l 0.32813,-1.3789 0.34765,-0.67578 0.34375,-0.34766 0.6875,-0.34375"/><path id="path693" fill="none" stroke="#006464" stroke-linecap="round" stroke-linejoin="round" stroke-miterlimit="10" stroke-opacity="1" stroke-width=".9" d="m 0.434995,11.083439 h 5.47657"/><path id="path694" fill="none" stroke="#006464" stroke-linecap="round" stroke-linejoin="round" stroke-miterlimit="10" stroke-opacity="1" stroke-width=".9" d="M 3.165465,13.829529 V 8.337339"/><path id="path695" fill="none" stroke="#006464" stroke-linecap="round" stroke-linejoin="round" stroke-miterlimit="10" stroke-opacity="1" stroke-width=".9" d="m 12.767035,6.630309 h -3.42188 l -0.34375,3.4336 0.34375,-0.34375 0.67578,-0.34766 h 1.72656 l 0.67579,0.34766 0.34375,0.34375 0.34375,0.67578 v 1.72265 l -0.34375,0.67579 -0.34375,0.34765 -0.67579,0.34375 h -1.72656 l -0.67578,-0.34375 -0.34375,-0.34765"/><path id="path696" fill="none" stroke="#006464" stroke-linecap="round" stroke-linejoin="round" stroke-miterlimit="10" stroke-opacity="1" stroke-width=".9" d="m 15.165465,6.630309 2.40235,7.19922 2.39843,-7.19922"/><path id="path697" fill="none" stroke="#006464" stroke-linecap="round" stroke-linejoin="round" stroke-miterlimit="10" stroke-opacity="1" stroke-width=".9" d="m 76.173285,143.72797 -0.67579,-0.34375 h -1.03515 l -1.01953,0.34375 -0.69141,0.69141 -0.34375,0.6914 -0.34766,1.36328 v 1.03516 l 0.34766,1.36328 0.34375,0.69141 0.69141,0.67578 1.01953,0.34375 h 0.6914 l 1.01954,-0.34375 0.34375,-0.33203 v -2.39844 h -1.36329"/><path id="path698" fill="none" stroke="#006464" stroke-linecap="round" stroke-linejoin="round" stroke-miterlimit="10" stroke-opacity="1" stroke-width=".9" d="m 79.606875,150.58344 v -7.19922 l 4.10937,7.19922 v -7.19922"/><path id="path699" fill="none" stroke="#006464" stroke-linecap="round" stroke-linejoin="round" stroke-miterlimit="10" stroke-opacity="1" stroke-width=".9" d="m 87.153745,150.58344 v -7.19922 h 1.70704 l 1.01953,0.34375 0.6914,0.69141 0.34375,0.6914 0.34766,1.36328 v 1.03516 l -0.34766,1.36328 -0.34375,0.69141 -0.6914,0.67578 -1.01953,0.34375 h -1.70704"/><path id="path716" fill="none" stroke="#006464" stroke-linecap="round" stroke-linejoin="round" stroke-miterlimit="10" stroke-opacity="1" stroke-width=".9" d="m 98.056095,78.270939 1.03515,0.34375 h 1.710945 l 0.69141,-0.34375 0.32812,-0.34766 0.34375,-0.6875 v -0.67578 l -0.34375,-0.69141 -0.32812,-0.34375 -0.69141,-0.34375 -1.367195,-0.34765 -0.6875,-0.32813 -0.34375,-0.34765 -0.34765,-0.6875 v -0.69141 l 0.34765,-0.67578 0.34375,-0.34375 0.6875,-0.34375 h 1.710945 l 1.01953,0.34375"/><path id="path717" fill="none" stroke="#006464" stroke-linecap="round" stroke-linejoin="round" stroke-miterlimit="10" stroke-opacity="1" stroke-width=".9" d="m 104.56782,71.415469 1.72265,7.19922 1.36719,-5.14453 1.36328,5.14453 1.72656,-7.19922"/><path id="path718" fill="none" stroke="#006464" stroke-linecap="round" stroke-linejoin="round" stroke-miterlimit="10" stroke-opacity="1" stroke-width=".9" d="m 117.60297,77.923279 -0.34765,0.34766 -1.03516,0.34375 h -0.6875 l -1.01953,-0.34375 -0.69141,-0.69141 -0.34375,-0.6914 -0.33203,-1.36329 v -1.01953 l 0.33203,-1.38281 0.34375,-0.6875 0.69141,-0.67578 1.01953,-0.34375 h 0.6875 l 1.03516,0.34375 0.34765,0.34375"/><path id="path719" fill="none" stroke="#006464" stroke-linecap="round" stroke-linejoin="round" stroke-miterlimit="10" stroke-opacity="1" stroke-width=".9" d="m 47.895935,13.829529 -2.39844,-3.42187"/><path id="path720" fill="none" stroke="#006464" stroke-linecap="round" stroke-linejoin="round" stroke-miterlimit="10" stroke-opacity="1" stroke-width=".9" d="m 43.786565,13.829529 v -7.19922 h 2.74609 l 0.6875,0.34375 0.33203,0.34375 0.34375,0.69141 v 1.01953 l -0.34375,0.69141 -0.33203,0.34375 -0.6875,0.34375 h -2.74609"/></svg>