<svg xmlns="http://www.w3.org/2000/svg" id="svg1853" version="1.1" viewBox="0 0 469.03906 81.129798"><defs id="defs265"><clipPath id="clip-0"><path id="path235" d="M 70.019531,135 H 540 v 2 H 70.019531 Z m 0,0" clip-rule="nonzero"/></clipPath></defs><g id="g1295" fill="#fff" fill-opacity="1" stroke="#fff" stroke-opacity="1" clip-path="url(#clip-0)" transform="translate(-70.019531,-87.493344)"><path id="path1294" fill="#fff" fill-opacity="1" stroke="#fff" stroke-linecap="butt" stroke-linejoin="miter" stroke-miterlimit="4" stroke-opacity="1" stroke-width="0.5" d="M -0.00140625,-6.25e-4 H -469.04047" transform="matrix(1,0,0,-1,539.06,136.14)"/></g><path id="path1295" fill="none" fill-opacity="1" fill-rule="nonzero" stroke="#fff" stroke-opacity="1" d="M 10.128907,48.096496 H 21.40625 V 26.026186 H 10.128907 Z m 0,0"/><path id="path1296" fill="none" fill-opacity="1" stroke="#fff" stroke-linecap="round" stroke-linejoin="round" stroke-miterlimit="10" stroke-opacity="1" stroke-width="0.48" d="M 10.128907,26.018376 H 21.40625 v 22.07031 H 10.128907 Z m 0,0"/><path id="path1297" fill="none" fill-opacity="1" fill-rule="nonzero" stroke="#fff" stroke-opacity="1" d="M 26.203125,48.096496 H 133.44141 V 26.026186 H 26.203125 Z m 0,0"/><path id="path1298" fill="none" fill-opacity="1" stroke="#fff" stroke-linecap="round" stroke-linejoin="round" stroke-miterlimit="10" stroke-opacity="1" stroke-width="0.48" d="M 26.203125,26.018376 H 133.44141 v 22.07031 H 26.203125 Z m 0,0"/><path id="path1299" fill="none" fill-opacity="1" fill-rule="nonzero" stroke="#fff" stroke-opacity="1" d="m 218.12891,48.096496 h 11.27734 v -22.07031 h -11.27734 z m 0,0"/><path id="path1300" fill="none" fill-opacity="1" stroke="#fff" stroke-linecap="round" stroke-linejoin="round" stroke-miterlimit="10" stroke-opacity="1" stroke-width="0.48" d="m 218.12891,26.018376 h 11.27734 v 22.07031 h -11.27734 z m 0,0"/><path id="path1301" fill="#fff" fill-opacity="1" fill-rule="nonzero" stroke="none" stroke-opacity="1" d="M 9.8867191,69.686346 H 218.61719 v -0.47657 H 9.8867191 Z m 0,0"/><path id="path1301-1" fill="#fff" fill-opacity="1" fill-rule="nonzero" stroke="none" stroke-opacity="1" d="m 217.23048,69.733226 h 208.73047 v -0.47657 H 217.23048 Z m 0,0"/><path id="path1303" fill="none" fill-opacity="1" fill-rule="nonzero" stroke="#fff" stroke-opacity="1" d="m 425.90234,48.096496 h 11.27344 v -22.07031 h -11.27344 z m 0,0"/><path id="path1304" fill="none" fill-opacity="1" stroke="#fff" stroke-linecap="round" stroke-linejoin="round" stroke-miterlimit="10" stroke-opacity="1" stroke-width="0.48" d="m 425.90234,26.018376 h 11.27344 v 22.07031 h -11.27344 z m 0,0"/><path id="path1305" fill="#fff" fill-opacity="1" fill-rule="nonzero" stroke="#fff" stroke-opacity="1" d="m 233.96875,48.334776 h 0.48047 v -21.83203 h -0.48047 z m 0,0"/><path id="path1306" fill="none" fill-opacity="1" fill-rule="nonzero" stroke="#fff" stroke-opacity="1" d="m 441.96875,48.334776 h 0.48438 v -21.83203 h -0.48438 z m 0,0"/><path id="path1307" fill="#fff" fill-opacity="1" fill-rule="nonzero" stroke="none" stroke-opacity="1" d="m 425.90234,79.967596 h 0.48047 v -26.83203 h -0.48047 z m 0,0"/><path id="path1308" fill="#fff" fill-opacity="1" fill-rule="nonzero" stroke="none" stroke-opacity="1" d="m 218.12891,74.967596 h 0.48437 v -21.83203 h -0.48437 z m 0,0"/><path id="path1309" fill="#fff" fill-opacity="1" fill-rule="nonzero" stroke="none" stroke-opacity="1" d="M 9.8867191,74.967596 H 10.367188 V 53.135566 H 9.8867191 Z m 0,0"/><path id="path1310" fill="#fff" fill-opacity="1" fill-rule="nonzero" stroke="none" stroke-opacity="1" d="M 9.8867191,58.885566 H 42.277349 v -0.47657 H 9.8867191 Z m 0,0"/><path id="path1311" fill="#fff" fill-opacity="1" fill-rule="nonzero" stroke="none" stroke-opacity="1" d="m 105.85156,58.885566 h 27.10938 v -0.47657 h -27.10938 z m 0,0"/><path id="path1329" fill="#fff" fill-opacity="1" fill-rule="evenodd" stroke="none" stroke-opacity="1" d="m 10.389308,58.885566 5.515624,-5.51563 -0.238281,-0.48047 -5.7578119,5.75781"/><path id="path1330" fill="#fff" fill-opacity="1" fill-rule="evenodd" stroke="none" stroke-opacity="1" d="m 9.8935211,58.662596 5.7578119,5.51563 0.238281,-0.23828 -5.515624,-5.75782"/><path id="path1331" fill="#fff" fill-opacity="1" fill-rule="evenodd" stroke="none" stroke-opacity="1" d="m 10.37399,69.716986 5.515624,-5.75782 -0.238281,-0.23828 -5.7578119,5.75781"/><path id="path1332" fill="#fff" fill-opacity="1" fill-rule="evenodd" stroke="none" stroke-opacity="1" d="m 9.8782041,69.539966 5.7578119,5.51953 0.238281,-0.24218 -5.515624,-5.75782"/><path id="path1333" fill="#fff" fill-opacity="1" fill-rule="evenodd" stroke="none" stroke-opacity="1" d="m 132.96875,58.647276 -5.27734,-5.75781 -0.48047,0.47656 5.51953,5.51954"/><path id="path1334" fill="#fff" fill-opacity="1" fill-rule="evenodd" stroke="none" stroke-opacity="1" d="m 132.71875,58.166816 -5.51562,5.75781 0.48046,0.23828 5.27735,-5.51563"/><path id="path1338" fill="#fff" fill-opacity="1" fill-rule="evenodd" stroke="none" stroke-opacity="1" d="m 420.01065,63.907226 5.76172,5.51563 0.23828,-0.23828 -5.51953,-5.75781"/><path id="path1339" fill="#fff" fill-opacity="1" fill-rule="evenodd" stroke="none" stroke-opacity="1" d="m 420.49111,75.596166 5.52344,-5.75781 -0.24219,-0.23828 -5.75781,5.75781"/><path id="path1362" fill="#fff" fill-opacity="1" fill-rule="evenodd" stroke="none" stroke-opacity="1" d="M 70.671239,26.599326 81.468109,10.28293 81.225919,10.04464 70.194669,26.361046"/><path id="path1362-7" fill="#fff" fill-opacity="1" fill-rule="evenodd" stroke="none" stroke-opacity="1" d="M 223.80079,26.408316 234.59766,10.091911 234.35547,9.8536214 223.32422,26.170036"/><path id="path1363" fill="#fff" fill-opacity="1" fill-rule="nonzero" stroke="none" stroke-opacity="1" d="m 132.48047,64.166816 h 0.48047 v -11.03907 h -0.48047 z m 0,0"/><text xml:space="preserve" id="text1856-2" x="84.709641" y="81.039818" fill="#fff" fill-opacity="1" stroke="none" stroke-opacity="1" stroke-width=".75" direction="ltr" font-family="sans-serif" font-size="9px" font-stretch="normal" font-style="normal" font-variant="normal" font-weight="400" style="-inkscape-font-specification:sans-serif;text-align:start" text-anchor="start" writing-mode="lr-tb"><tspan id="tspan1856-5" x="84.709641" y="81.039818" fill="#fff" fill-opacity="1" stroke-width=".75">108ms</tspan></text><text xml:space="preserve" id="text1856-2-3" x="307.29172" y="81.003609" fill="#fff" fill-opacity="1" stroke="none" stroke-opacity="1" stroke-width=".75" direction="ltr" font-family="sans-serif" font-size="9px" font-stretch="normal" font-style="normal" font-variant="normal" font-weight="400" style="-inkscape-font-specification:sans-serif;text-align:start" text-anchor="start" writing-mode="lr-tb"><tspan id="tspan1856-5-0" x="307.29172" y="81.003609" fill="#fff" fill-opacity="1" stroke-width=".75">108ms</tspan></text><text xml:space="preserve" id="text1856-2-7" x="58.146088" y="62.202885" fill="#fff" fill-opacity="1" stroke="none" stroke-opacity="1" stroke-width=".75" direction="ltr" font-family="sans-serif" font-size="9px" font-stretch="normal" font-style="normal" font-variant="normal" font-weight="400" style="-inkscape-font-specification:sans-serif;text-align:start" text-anchor="start" writing-mode="lr-tb"><tspan id="tspan1856-5-4" x="58.146088" y="62.202885" fill="#fff" fill-opacity="1" stroke-width=".75">67.5ms</tspan></text><text xml:space="preserve" id="text1858" x="76.712372" y="7.9714241" fill="#fff" fill-opacity="1" stroke="none" stroke-opacity="1" stroke-width=".75" direction="ltr" font-family="sans-serif" font-size="9px" font-stretch="normal" font-style="normal" font-variant="normal" font-weight="400" style="-inkscape-font-specification:sans-serif;text-align:start" text-anchor="start" writing-mode="lr-tb"><tspan id="tspan1858" x="76.712372" y="7.9714241" fill="#fff" fill-opacity="1" stroke-width=".75">New Message</tspan></text><text xml:space="preserve" id="text1859" x="228.65579" y="6.8399849" fill="#fff" fill-opacity="1" stroke="none" stroke-opacity="1" stroke-width=".75" direction="ltr" font-family="sans-serif" font-size="9px" font-stretch="normal" font-style="normal" font-variant="normal" font-weight="400" style="-inkscape-font-specification:sans-serif;text-align:start" text-anchor="start" writing-mode="lr-tb"><tspan id="tspan1859" x="228.65579" y="6.8399849" fill="#fff" fill-opacity="1" stroke-width=".75">Repeat Pulse</tspan></text></svg>