<svg xmlns="http://www.w3.org/2000/svg" id="svg1853" version="1.1" viewBox="0 0 467.85156 70.562499"><defs id="defs265"><clipPath id="clip-2"><path id="path237" d="m 74,195 h 467.98047 v 1 H 74 Z m 0,0" clip-rule="nonzero"/></clipPath></defs><path id="path1364" fill="#fff" fill-opacity="1" fill-rule="evenodd" stroke="#fff" stroke-linecap="butt" stroke-linejoin="miter" stroke-miterlimit="4" stroke-opacity="1" stroke-width="0.75" d="m 369.01172,19.210943 v -17.99219 0.23828 h 4.31641 v -0.23828 17.99219 h 0.23828 V 0.980473 h -4.79687 v 18.23047"/><path id="path1365" fill="#fff" fill-opacity="1" fill-rule="evenodd" stroke="#fff" stroke-linecap="butt" stroke-linejoin="miter" stroke-miterlimit="4" stroke-opacity="1" stroke-width="0.75" d="M 382.44141,19.210943 V 1.218753 l -0.23828,0.23828 h 4.55469 v -0.23828 17.99219 h 0.24219 V 0.980473 h -5.03516 v 18.23047"/><path id="path1366" fill="#fff" fill-opacity="1" fill-rule="evenodd" stroke="#fff" stroke-linecap="butt" stroke-linejoin="miter" stroke-miterlimit="4" stroke-opacity="1" stroke-width="0.75" d="M 396.1211,19.210943 V 1.218753 l -0.23828,0.23828 h 4.55469 l -0.23829,-0.23828 v 17.99219 h 0.23829 V 0.980473 h -4.79688 v 18.23047"/><path id="path1367" fill="#fff" fill-opacity="1" fill-rule="evenodd" stroke="#fff" stroke-linecap="butt" stroke-linejoin="miter" stroke-miterlimit="4" stroke-opacity="1" stroke-width="0.75" d="M 404.99219,19.210943 V 1.218753 l -0.24218,0.23828 h 4.55859 l -0.23828,-0.23828 v 17.99219 h 0.48047 V 0.980473 h -4.80078 v 18.23047"/><path id="path1368" fill="#fff" fill-opacity="1" fill-rule="evenodd" stroke="#fff" stroke-linecap="butt" stroke-linejoin="miter" stroke-miterlimit="4" stroke-opacity="1" stroke-width="0.75" d="M 414.10938,19.210943 V 1.218753 l -0.23828,0.23828 h 4.32031 v -0.23828 17.99219 h 0.23438 V 0.980473 h -4.79297 v 18.23047"/><path id="path1369" fill="#fff" fill-opacity="1" fill-rule="evenodd" stroke="#fff" stroke-linecap="butt" stroke-linejoin="miter" stroke-miterlimit="4" stroke-opacity="1" stroke-width="0.75" d="M 427.55079,19.210943 V 1.218753 l -0.24219,0.23828 h 4.55859 l -0.24218,-0.23828 v 17.99219 h 0.24218 V 0.980473 h -4.80078 v 18.23047"/><path id="path1370" fill="#fff" fill-opacity="1" fill-rule="evenodd" stroke="#fff" stroke-linecap="butt" stroke-linejoin="miter" stroke-miterlimit="4" stroke-opacity="1" stroke-width="0.75" d="M 436.42188,19.210943 V 1.218753 l -0.23828,0.23828 h 4.55469 l -0.23828,-0.23828 v 17.99219 h 0.48046 V 0.980473 h -5.03906 v 18.23047"/><path id="path1371" fill="#fff" fill-opacity="1" fill-rule="evenodd" stroke="#fff" stroke-linecap="butt" stroke-linejoin="miter" stroke-miterlimit="4" stroke-opacity="1" stroke-width="0.75" d="M 449.85938,19.210943 V 1.218753 l -0.23828,0.23828 h 4.32031 v -0.23828 17.99219 h 0.23828 V 0.980473 h -4.55859 v 18.23047"/><path id="path1372" fill="#fff" fill-opacity="1" fill-rule="evenodd" stroke="#fff" stroke-linecap="butt" stroke-linejoin="miter" stroke-miterlimit="4" stroke-opacity="1" stroke-width="0.75" d="m 355.57032,19.210943 v -17.99219 0.23828 h 4.32031 l -0.23828,-0.23828 v 17.99219 h 0.48047 V 0.980473 h -4.79688 v 18.23047"/><path id="path1373" fill="#fff" fill-opacity="1" fill-rule="evenodd" stroke="#fff" stroke-linecap="butt" stroke-linejoin="miter" stroke-miterlimit="4" stroke-opacity="1" stroke-width="0.75" d="M 346.69922,19.210943 V 1.218753 l -0.23828,0.23828 h 4.5586 l -0.24219,-0.23828 v 17.99219 h 0.48047 V 0.980473 h -5.03906 v 18.23047"/><path id="path1374" fill="#fff" fill-opacity="1" fill-rule="evenodd" stroke="#fff" stroke-linecap="butt" stroke-linejoin="miter" stroke-miterlimit="4" stroke-opacity="1" stroke-width="0.75" d="M 333.01954,19.210943 V 1.218753 l -0.23828,0.23828 h 4.79687 l -0.24219,-0.23828 v 17.99219 h 0.24219 V 0.980473 h -5.03906 v 18.23047"/><path id="path1375" fill="#fff" fill-opacity="1" fill-rule="evenodd" stroke="#fff" stroke-linecap="butt" stroke-linejoin="miter" stroke-miterlimit="4" stroke-opacity="1" stroke-width="0.75" d="M 324.14063,19.210943 V 1.218753 l -0.23828,0.23828 h 4.55859 l -0.23828,-0.23828 v 17.99219 h 0.48047 V 0.980473 h -5.04297 v 18.23047"/><path id="path1376" fill="#fff" fill-opacity="1" fill-rule="evenodd" stroke="#fff" stroke-linecap="butt" stroke-linejoin="miter" stroke-miterlimit="4" stroke-opacity="1" stroke-width="0.75" d="m 310.47266,19.210943 v -17.99219 0.23828 h 4.5586 l -0.24219,-0.23828 v 17.99219 h 0.48047 V 0.980473 h -5.03907 v 18.23047"/><path id="path1377" fill="#fff" fill-opacity="1" fill-rule="evenodd" stroke="#fff" stroke-linecap="butt" stroke-linejoin="miter" stroke-miterlimit="4" stroke-opacity="1" stroke-width="0.75" d="M 297.26954,19.210943 V 1.218753 l -0.23828,0.23828 h 4.55859 l -0.23828,-0.23828 v 17.99219 h 0.48047 V 0.980473 h -4.80078 v 18.23047"/><path id="path1378" fill="#fff" fill-opacity="1" fill-rule="evenodd" stroke="#fff" stroke-linecap="butt" stroke-linejoin="miter" stroke-miterlimit="4" stroke-opacity="1" stroke-width="0.75" d="M 288.40235,19.210943 V 1.218753 l -0.24219,0.23828 h 4.5586 l -0.24219,-0.23828 v 17.99219 h 0.24219 V 0.980473 h -4.80079 v 18.23047"/><path id="path1379" fill="#fff" fill-opacity="1" fill-rule="evenodd" stroke="#fff" stroke-linecap="butt" stroke-linejoin="miter" stroke-miterlimit="4" stroke-opacity="1" stroke-width="0.75" d="M 279.28126,19.210943 V 1.218753 l -0.23829,0.23828 h 4.55469 l -0.23828,-0.23828 v 17.99219 h 0.48047 V 0.980473 h -4.79688 v 18.23047"/><path id="path1380" fill="#fff" fill-opacity="1" fill-rule="evenodd" stroke="#fff" stroke-linecap="butt" stroke-linejoin="miter" stroke-miterlimit="4" stroke-opacity="1" stroke-width="0.75" d="M 270.40235,19.210943 V 1.218753 l -0.24219,0.23828 h 4.32031 l -0.24218,-0.23828 v 17.99219 h 0.48437 V 0.980473 h -4.80078 v 18.23047"/><path id="path1381" fill="#fff" fill-opacity="1" fill-rule="evenodd" stroke="#fff" stroke-linecap="butt" stroke-linejoin="miter" stroke-miterlimit="4" stroke-opacity="1" stroke-width="0.75" d="M 261.29297,19.210943 V 1.218753 l -0.23828,0.23828 h 4.55469 l -0.24219,-0.23828 v 17.99219 h 0.24219 V 0.980473 h -4.79687 v 18.23047"/><path id="path1382" fill="#fff" fill-opacity="1" fill-rule="evenodd" stroke="#fff" stroke-linecap="butt" stroke-linejoin="miter" stroke-miterlimit="4" stroke-opacity="1" stroke-width="0.75" d="M 252.17188,19.210943 V 1.218753 l -0.24219,0.23828 h 4.80078 l -0.24218,-0.23828 v 17.99219 h 0.48047 V 0.980473 h -5.03907 v 18.23047"/><path id="path1383" fill="#fff" fill-opacity="1" fill-rule="evenodd" stroke="#fff" stroke-linecap="butt" stroke-linejoin="miter" stroke-miterlimit="4" stroke-opacity="1" stroke-width="0.75" d="M 243.53126,19.210943 V 1.218753 l -0.24219,0.23828 h 4.5625 l -0.24219,-0.23828 v 17.99219 h 0.24219 V 0.980473 h -4.80078 v 18.23047"/><path id="path1384" fill="#fff" fill-opacity="1" fill-rule="evenodd" stroke="#fff" stroke-linecap="butt" stroke-linejoin="miter" stroke-miterlimit="4" stroke-opacity="1" stroke-width="0.75" d="M 229.85938,19.210943 V 1.218753 l -0.23828,0.23828 h 4.55859 v -0.23828 17.99219 h 0.24219 V 0.980473 h -5.03906 v 18.23047"/><path id="path1385" fill="#fff" fill-opacity="1" fill-rule="evenodd" stroke="#fff" stroke-linecap="butt" stroke-linejoin="miter" stroke-miterlimit="4" stroke-opacity="1" stroke-width="0.75" d="M 220.98047,19.210943 V 1.218753 l -0.23828,0.23828 h 4.5586 l -0.24219,-0.23828 v 17.99219 h 0.48047 V 0.980473 h -5.03906 v 18.23047"/><path id="path1386" fill="#fff" fill-opacity="1" fill-rule="evenodd" stroke="#fff" stroke-linecap="butt" stroke-linejoin="miter" stroke-miterlimit="4" stroke-opacity="1" stroke-width="0.75" d="M 212.91741,19.116363 V 1.124173 l -0.23828,0.23828 h 4.55468 l -0.23828,-0.23828 v 17.99219 h 0.23828 V 0.885893 h -4.79687 v 18.23047"/><path id="path1387" fill="#fff" fill-opacity="1" fill-rule="evenodd" stroke="#fff" stroke-linecap="butt" stroke-linejoin="miter" stroke-miterlimit="4" stroke-opacity="1" stroke-width="0.75" d="M 198.67188,19.210943 V 1.218753 l -0.24219,0.23828 h 4.32032 v -0.23828 17.99219 h 0.23828 V 0.980473 h -4.79688 v 18.23047"/><path id="path1388" fill="#fff" fill-opacity="1" fill-rule="evenodd" stroke="#fff" stroke-linecap="butt" stroke-linejoin="miter" stroke-miterlimit="4" stroke-opacity="1" stroke-width="0.75" d="m 184.99219,19.210943 v -17.99219 0.23828 h 4.31641 v -0.23828 17.99219 h 0.24219 V 0.980473 h -4.79688 v 18.23047"/><path id="path1389" fill="#fff" fill-opacity="1" fill-rule="evenodd" stroke="#fff" stroke-linecap="butt" stroke-linejoin="miter" stroke-miterlimit="4" stroke-opacity="1" stroke-width="0.75" d="m 171.32032,19.210943 v -17.99219 0.23828 h 4.55859 l -0.23828,-0.23828 v 17.99219 h 0.47656 V 0.980473 h -5.03515 v 18.23047"/><path id="path1390" fill="#fff" fill-opacity="1" fill-rule="evenodd" stroke="#fff" stroke-linecap="butt" stroke-linejoin="miter" stroke-miterlimit="4" stroke-opacity="1" stroke-width="0.75" d="M 158.1211,19.210943 V 1.218753 l -0.24219,0.23828 h 4.5586 l -0.23829,-0.23828 v 17.99219 h 0.48047 V 0.980473 h -4.80078 v 18.23047"/><path id="path1391" fill="#fff" fill-opacity="1" fill-rule="evenodd" stroke="#fff" stroke-linecap="butt" stroke-linejoin="miter" stroke-miterlimit="4" stroke-opacity="1" stroke-width="0.75" d="M 144.69141,19.210943 V 1.218753 l -0.24219,0.23828 h 4.5586 l -0.23828,-0.23828 v 17.99219 h 0.48047 V 0.980473 h -5.03907 v 18.23047"/><path id="path1392" fill="#fff" fill-opacity="1" fill-rule="evenodd" stroke="#fff" stroke-linecap="butt" stroke-linejoin="miter" stroke-miterlimit="4" stroke-opacity="1" stroke-width="0.75" d="M 135.81251,19.210943 V 1.218753 l -0.24219,0.23828 h 4.55859 l -0.23828,-0.23828 v 17.99219 h 0.23828 V 0.980473 h -4.79687 v 18.23047"/><path id="path1393" fill="#fff" fill-opacity="1" fill-rule="evenodd" stroke="#fff" stroke-linecap="butt" stroke-linejoin="miter" stroke-miterlimit="4" stroke-opacity="1" stroke-width="0.75" d="M 122.14063,19.210943 V 1.218753 l -0.23828,0.23828 h 4.55859 v -0.23828 17.99219 h 0.23828 V 0.980473 h -5.03906 v 18.23047"/><path id="path1394" fill="#fff" fill-opacity="1" fill-rule="evenodd" stroke="#fff" stroke-linecap="butt" stroke-linejoin="miter" stroke-miterlimit="4" stroke-opacity="1" stroke-width="0.75" d="M 108.69922,19.210943 V 1.218753 l -0.23828,0.23828 h 4.31641 v -0.23828 17.99219 h 0.24219 V 0.980473 h -4.79688 v 18.23047"/><path id="path1395" fill="#fff" fill-opacity="1" fill-rule="evenodd" stroke="#fff" stroke-linecap="butt" stroke-linejoin="miter" stroke-miterlimit="4" stroke-opacity="1" stroke-width="0.75" d="M 99.589845,19.210943 V 1.218753 l -0.23828,0.23828 h 4.796875 l -0.23828,-0.23828 v 17.99219 h 0.48047 V 0.980473 h -5.039065 v 18.23047"/><path id="path1396" fill="#fff" fill-opacity="1" fill-rule="evenodd" stroke="#fff" stroke-linecap="butt" stroke-linejoin="miter" stroke-miterlimit="4" stroke-opacity="1" stroke-width="0.75" d="M 90.949214,19.210943 V 1.218753 l -0.23828,0.23828 h 4.31641 v -0.23828 17.99219 h 0.24219 V 0.980473 h -4.80078 v 18.23047"/><g id="g1397" fill="#fff" fill-opacity="1" stroke="#fff" stroke-opacity="1" clip-path="url(#clip-2)" transform="translate(-74.128906,-176.1875)"><path id="path1397" fill="#fff" fill-opacity="1" fill-rule="nonzero" stroke="#fff" stroke-opacity="1" d="M 74.628906,195.39844 H 541.98047 v -0.23828 H 74.628906 Z m 0,0"/></g><path id="path1399" fill="#fff" fill-opacity="1" fill-rule="nonzero" stroke="none" stroke-opacity="1" d="m 269.92188,70.562503 h 0.47656 v -42.70703 h -0.47656 z m 0,0"/><path id="path1401" fill="#fff" fill-opacity="1" fill-rule="nonzero" stroke="none" stroke-opacity="1" d="m 184.75001,47.531253 h 0.23828 v -19.67188 h -0.23828 z m 0,0"/><path id="path1403" fill="#fff" fill-opacity="1" fill-rule="nonzero" stroke="none" stroke-opacity="1" d="m 355.57231,47.599603 h 0.24219 v -19.67187 h -0.24219 z m 0,0"/><path id="path1403-9" fill="#fff" fill-opacity="1" fill-rule="nonzero" stroke="none" stroke-opacity="1" d="m 450.33392,47.522903 h 0.24218 v -19.67188 h -0.24218 z m 0,0"/><path id="path1404" fill="#fff" fill-opacity="1" fill-rule="nonzero" stroke="none" stroke-opacity="1" d="M 18.734375,38.414063 H 271.60547 v -0.48047 H 18.734375 Z m 0,0"/><path id="path1405" fill="#fff" fill-opacity="1" fill-rule="nonzero" stroke="none" stroke-opacity="1" stroke-width="1.00202" d="m 271.49438,38.414063 h 178.7322 v -0.48047 h -178.7322 z m 0,0"/><path id="path1408" fill="#fff" fill-opacity="1" fill-rule="nonzero" stroke="none" stroke-opacity="1" d="m 66.242184,47.531253 h 0.23828 v -19.67188 h -0.23828 z m 0,0"/><path id="path1408-5" fill="#fff" fill-opacity="1" fill-rule="nonzero" stroke="none" stroke-opacity="1" d="m 90.488044,47.531483 h 0.23828 v -19.67188 h -0.23828 z m 0,0"/><path id="path1408-5-3" fill="#fff" fill-opacity="1" fill-rule="nonzero" stroke="none" stroke-opacity="1" d="m 18.345439,47.428483 h 0.23828 v -19.67188 h -0.23828 z m 0,0"/><path id="path1409" fill="none" fill-opacity="1" fill-rule="nonzero" stroke="#fff" stroke-opacity="1" d="M 18.734375,19.210943 H 66.238284 V 0.500003 H 18.734375 Z m 0,0"/><path id="path1410" fill="none" fill-opacity="1" stroke="#fff" stroke-linecap="round" stroke-linejoin="round" stroke-miterlimit="10" stroke-opacity="1" stroke-width="0.75" d="m 18.734375,0.503913 h 47.503909 v 18.71093 H 18.734375 Z m 0,0"/><path id="path1475" fill="#fff" fill-opacity="1" fill-rule="evenodd" stroke="none" stroke-opacity="1" d="m 18.734375,38.414063 5.039063,-3.83984 -0.242188,-0.23828 -5.039062,3.59765"/><path id="path1476" fill="#fff" fill-opacity="1" fill-rule="evenodd" stroke="none" stroke-opacity="1" d="m 18.492188,38.171873 5.039062,4.80079 0.242188,-0.23829 -5.039063,-4.80078"/><path id="path1493" fill="#fff" fill-opacity="1" fill-rule="evenodd" stroke="none" stroke-opacity="1" d="m 450.57591,38.260123 -3.59765,-4.07812 -0.24219,0.48046 3.60156,3.83985"/><path id="path1494" fill="#fff" fill-opacity="1" fill-rule="evenodd" stroke="none" stroke-opacity="1" d="m 450.11144,38.220473 -3.59766,3.35546 0.23828,0.24219 3.60156,-3.35937"/><text xml:space="preserve" id="text1856" x="117.27125" y="35.319302" fill="#fff" fill-opacity="1" stroke="none" stroke-opacity="1" stroke-width=".75" direction="ltr" font-family="sans-serif" font-size="9px" font-stretch="normal" font-style="normal" font-variant="normal" font-weight="400" style="-inkscape-font-specification:sans-serif;text-align:start" text-anchor="start" writing-mode="lr-tb"><tspan id="tspan1856" x="117.27125" y="35.319302" fill="#fff" fill-opacity="1" stroke-width=".75">Address</tspan></text><text xml:space="preserve" id="text1856-2-7-8" x="32.950623" y="48.601849" fill="#fff" fill-opacity="1" stroke="none" stroke-opacity="1" stroke-width=".75" direction="ltr" font-family="sans-serif" font-size="9px" font-stretch="normal" font-style="normal" font-variant="normal" font-weight="400" style="-inkscape-font-specification:sans-serif;text-align:start" text-anchor="start" writing-mode="lr-tb"><tspan id="tspan1856-5-4-6" x="32.950623" y="48.601849" fill="#fff" fill-opacity="1" stroke-width=".75">9ms</tspan></text><text xml:space="preserve" id="text1856-2-7-8-8" x="71.390366" y="48.213116" fill="#fff" fill-opacity="1" stroke="none" stroke-opacity="1" stroke-width=".75" direction="ltr" font-family="sans-serif" font-size="9px" font-stretch="normal" font-style="normal" font-variant="normal" font-weight="400" style="-inkscape-font-specification:sans-serif;text-align:start" text-anchor="start" writing-mode="lr-tb"><tspan id="tspan1856-5-4-6-4" x="71.390366" y="48.213116" fill="#fff" fill-opacity="1" stroke-width=".75">4.5</tspan><tspan id="tspan1864" x="71.390366" y="59.463116" fill="#fff" fill-opacity="1" stroke-width=".75">ms</tspan></text><text xml:space="preserve" id="text1857" x="189.19128" y="35.319286" fill="#fff" fill-opacity="1" stroke="none" stroke-opacity="1" stroke-width=".75" direction="ltr" font-family="sans-serif" font-size="9px" font-stretch="normal" font-style="normal" font-variant="normal" font-weight="400" style="-inkscape-font-specification:sans-serif;text-align:start" text-anchor="start" writing-mode="lr-tb"><tspan id="tspan1857" x="189.19128" y="35.319286" fill="#fff" fill-opacity="1" stroke-width=".75">Address w/ Bit Flip</tspan></text><text xml:space="preserve" id="text1861" x="291.65799" y="34.7393" fill="#fff" fill-opacity="1" stroke="none" stroke-opacity="1" stroke-width=".75" direction="ltr" font-family="sans-serif" font-size="9px" font-stretch="normal" font-style="normal" font-variant="normal" font-weight="400" style="-inkscape-font-specification:sans-serif;text-align:start" text-anchor="start" writing-mode="lr-tb"><tspan id="tspan1861" x="291.65799" y="34.7393" fill="#fff" fill-opacity="1" stroke-width=".75">Command</tspan></text><text xml:space="preserve" id="text1862" x="358.93808" y="34.159313" fill="#fff" fill-opacity="1" stroke="none" stroke-opacity="1" stroke-width=".75" direction="ltr" font-family="sans-serif" font-size="9px" font-stretch="normal" font-style="normal" font-variant="normal" font-weight="400" style="-inkscape-font-specification:sans-serif;text-align:start" text-anchor="start" writing-mode="lr-tb"><tspan id="tspan1862" x="358.93808" y="34.159313" fill="#fff" fill-opacity="1" stroke-width=".75">Command w/ Bit Flip</tspan></text><text xml:space="preserve" id="text1856-2-7-8-1" x="174.41759" y="59.284512" fill="#fff" fill-opacity="1" stroke="none" stroke-opacity="1" stroke-width=".75" direction="ltr" font-family="sans-serif" font-size="9px" font-stretch="normal" font-style="normal" font-variant="normal" font-weight="400" style="-inkscape-font-specification:sans-serif;text-align:start" text-anchor="start" writing-mode="lr-tb"><tspan id="tspan1856-5-4-6-49" x="174.41759" y="59.284512" fill="#fff" fill-opacity="1" stroke-width=".75">27ms</tspan></text><text xml:space="preserve" id="text1856-2-7-8-1-0" x="345.15375" y="59.298733" fill="#fff" fill-opacity="1" stroke="none" stroke-opacity="1" stroke-width=".75" direction="ltr" font-family="sans-serif" font-size="9px" font-stretch="normal" font-style="normal" font-variant="normal" font-weight="400" style="-inkscape-font-specification:sans-serif;text-align:start" text-anchor="start" writing-mode="lr-tb"><tspan id="tspan1856-5-4-6-49-6" x="345.15375" y="59.298733" fill="#fff" fill-opacity="1" stroke-width=".75">27ms</tspan></text></svg>