<?xml version="1.0" encoding="UTF-8" standalone="no"?>
<!-- Created with Inkscape (http://www.inkscape.org/) -->
<svg
   xmlns:dc="http://purl.org/dc/elements/1.1/"
   xmlns:cc="http://web.resource.org/cc/"
   xmlns:rdf="http://www.w3.org/1999/02/22-rdf-syntax-ns#"
   xmlns:svg="http://www.w3.org/2000/svg"
   xmlns="http://www.w3.org/2000/svg"
   xmlns:sodipodi="http://sodipodi.sourceforge.net/DTD/sodipodi-0.dtd"
   xmlns:inkscape="http://www.inkscape.org/namespaces/inkscape"
   width="395.14474"
   height="132.77589"
   viewBox="0 0 395.14474 132.77589"
   id="svg2"
   sodipodi:version="0.32"
   inkscape:version="0.44.1"
   version="1.0"
   sodipodi:docbase="D:\New Docs Mx\Qapla'"
   sodipodi:docname="Qapla'-Inkscape.svg">
  <defs
     id="defs4">
 
  
 <style
   id="style1952"
   type="text/css">
   
    .fil0 {fill:#000000}
   
  </style>

  </defs>
  <sodipodi:namedview
     id="base"
     pagecolor="#ffffff"
     bordercolor="#666666"
     borderopacity="1.0"
     gridtolerance="10000"
     guidetolerance="10"
     objecttolerance="10"
     inkscape:pageopacity="0.0"
     inkscape:pageshadow="2"
     inkscape:zoom="3.026739"
     inkscape:cx="197.57237"
     inkscape:cy="66.387947"
     inkscape:document-units="pt"
     inkscape:current-layer="layer1"
     width="765px"
     height="990px"
     inkscape:window-width="1280"
     inkscape:window-height="927"
     inkscape:window-x="-4"
     inkscape:window-y="-4" />
  <metadata
     id="metadata7">
    <rdf:RDF>
      <cc:Work
         rdf:about="">
        <dc:format>image/svg+xml</dc:format>
        <dc:type
           rdf:resource="http://purl.org/dc/dcmitype/StillImage" />
      </cc:Work>
    </rdf:RDF>
  </metadata>
  <g
     inkscape:label="Layer 1"
     inkscape:groupmode="layer"
     id="layer1"
     transform="translate(-177.8204,-299.9077)">
    <g
       transform="matrix(6.586106e-2,0,0,6.586106e-2,371.3861,299.9077)"
       id="g1955">
   <path
   id="58657264"
   class="fil0"
   d="M 2676,539 L 2749,468 L 2825,385 L 2858,339 L 2877,291 L 2879,267 C 2881,251 2882,239 2882,233 L 2879,213 C 2873,181 2859,147 2836,112 L 2879,78 C 2960,121 3013,166 3038,211 C 3056,245 3063,278 3060,311 L 3058,340 C 3050,367 3043,386 3037,398 C 3033,410 3024,423 3011,437 L 2976,483 C 2966,495 2960,504 2956,507 C 2953,511 2946,517 2936,527 L 2863,615 C 2848,637 2833,665 2820,699 L 2818,708 C 2816,719 2816,730 2819,742 L 2835,776 L 2836,783 L 2840,789 L 2861,832 C 2866,847 2867,860 2864,873 C 2861,882 2853,891 2841,901 C 2829,910 2802,920 2761,932 C 2721,925 2688,905 2661,871 C 2644,839 2632,802 2625,759 L 2621,717 L 2622,668 L 2633,603 C 2634,590 2648,569 2676,539 z "
   style="fill:black" />

   <path
   id="58657352"
   class="fil0"
   d="M 2618,202 L 2624,255 C 2499,303 2394,364 2308,438 C 2265,475 2224,517 2184,565 C 2148,610 2110,666 2070,735 C 2162,763 2231,834 2280,947 L 2260,981 L 2170,977 L 2101,973 L 1918,979 L 1867,1058 C 2008,1090 2115,1161 2186,1272 C 2238,1350 2267,1445 2273,1558 L 2274,1617 C 2275,1629 2275,1641 2276,1653 C 2274,1665 2272,1674 2271,1679 L 2259,1802 L 2234,1928 L 2194,1928 L 2195,1917 L 2197,1808 C 2190,1677 2148,1567 2070,1479 C 1970,1369 1829,1314 1646,1314 C 1598,1314 1547,1318 1491,1326 L 1305,1362 L 1300,1320 C 1325,1301 1355,1275 1390,1241 L 1495,1130 C 1556,1062 1629,972 1712,862 C 1763,792 1814,721 1866,650 C 1903,598 1938,547 1971,499 C 1990,470 2008,442 2026,414 C 2043,386 2056,362 2067,343 C 2094,295 2117,251 2134,210 L 2329,214 L 2483,208 L 2618,202 z "
   style="fill:black" />

   <path
   id="58657440"
   class="fil0"
   d="M 1549,202 L 1553,255 C 1404,307 1264,401 1133,535 C 1074,597 1013,671 952,756 C 891,841 826,942 759,1058 C 899,1090 1004,1162 1074,1274 C 1125,1354 1153,1451 1159,1562 L 1160,1619 C 1161,1625 1161,1633 1161,1641 C 1159,1658 1158,1671 1157,1679 L 1145,1802 L 1120,1928 L 1080,1928 L 1081,1917 L 1083,1808 C 1076,1677 1034,1567 956,1479 C 856,1369 715,1314 532,1314 C 484,1314 432,1318 377,1326 L 191,1362 L 186,1320 C 335,1187 484,1027 633,841 C 781,654 924,444 1062,210 L 1258,214 L 1414,208 L 1549,202 z "
   style="fill:black" />

   <path
   id="58657528"
   class="fil0"
   d="M -646,682 L -569,559 L -497,418 L -456,319 L -420,226 L -360,45 L -322,0 C -309,0 -301,10 -297,31 L -296,109 L -303,156 L -307,204 L -310,226 L -311,247 L -315,277 L -318,307 L -320,394 L -312,452 C -308,481 -288,495 -253,495 L -217,493 L -183,491 C -53,491 42,530 102,608 C 148,667 173,739 177,824 L 179,860 L 175,902 L 164,985 C 163,1001 159,1015 154,1027 L 139,1072 C 124,1130 98,1189 61,1249 C -19,1392 -148,1535 -326,1677 C -491,1806 -709,1903 -980,1966 L -975,1907 C -908,1875 -844,1839 -783,1798 C -723,1758 -666,1714 -614,1667 C -509,1576 -417,1475 -339,1366 C -303,1310 -269,1248 -239,1181 L -206,1088 C -202,1075 -199,1063 -197,1055 C -196,1046 -193,1028 -189,1001 L -188,963 C -187,948 -188,936 -193,927 C -195,897 -201,873 -214,854 C -227,816 -243,786 -262,763 C -279,739 -298,722 -319,713 L -349,701 L -379,697 C -415,697 -458,713 -508,747 L -658,852 L -736,906 L -822,953 L -852,908 C -772,845 -704,770 -646,682 z "
   style="fill:black" />

   <path
   id="58657616"
   class="fil0"
   d="M -2625,739 L -2526,618 L -2418,477 L -2325,335 L -2245,202 L -2237,202 L -2229,202 C -2204,202 -2171,198 -2129,190 L -2061,178 L -2003,158 C -1940,139 -1885,116 -1839,89 L -1768,49 L -1709,0 L -1678,0 C -1679,29 -1683,48 -1687,59 L -1698,91 L -1712,121 C -1728,159 -1748,201 -1774,247 C -1817,315 -1857,372 -1894,416 L -1971,509 L -2031,575 L -2155,705 L -2260,799 L -2364,888 C -2327,941 -2302,997 -2289,1056 C -2281,1088 -2276,1122 -2274,1157 C -2273,1188 -2273,1214 -2276,1237 C -2290,1397 -2359,1549 -2484,1692 C -2609,1836 -2750,1944 -2909,2016 L -2939,1974 C -2864,1924 -2798,1861 -2740,1784 C -2682,1708 -2637,1624 -2607,1534 L -2589,1461 L -2577,1391 L -2576,1356 L -2577,1328 C -2580,1264 -2598,1206 -2630,1155 C -2670,1086 -2747,1038 -2859,1009 L -2854,949 L -2801,908 L -2738,856 L -2683,803 L -2625,739 z "
   style="fill:black" />

   <path
   id="58657792"
   class="fil0"
   d="M -795,202 L -790,255 C -914,303 -1020,364 -1106,438 C -1148,475 -1190,517 -1230,565 C -1266,610 -1303,666 -1343,735 C -1252,763 -1182,834 -1134,947 L -1154,981 L -1244,977 L -1312,973 L -1495,979 L -1547,1058 C -1406,1090 -1299,1161 -1227,1272 C -1175,1350 -1147,1445 -1141,1558 L -1139,1617 C -1139,1629 -1138,1641 -1137,1653 C -1140,1665 -1142,1674 -1142,1679 L -1154,1802 L -1179,1928 L -1219,1928 L -1218,1917 L -1216,1808 C -1223,1677 -1266,1567 -1343,1479 C -1443,1369 -1585,1314 -1768,1314 C -1815,1314 -1867,1318 -1922,1326 L -2108,1362 L -2114,1320 C -2089,1301 -2059,1275 -2023,1241 L -1919,1130 C -1857,1062 -1785,972 -1701,862 C -1650,792 -1599,721 -1548,650 C -1510,598 -1475,547 -1443,499 C -1423,470 -1405,442 -1388,414 C -1371,386 -1357,362 -1347,343 C -1319,295 -1297,251 -1279,210 L -1085,214 L -930,208 L -795,202 z "
   style="fill:black" />

  </g>
  </g>
</svg>
